<?xml version="1.0" encoding="utf-8"?>
<!-- Generator: Adobe Illustrator 18.1.1, SVG Export Plug-In . SVG Version: 6.00 Build 0)  -->
<svg version="1.1" id="Layer_1" xmlns="http://www.w3.org/2000/svg" xmlns:xlink="http://www.w3.org/1999/xlink" x="0px" y="0px"
	 viewBox="0 0 1280 800" enable-background="new 0 0 1280 800" xml:space="preserve">
<g id="Layer_1_1_" display="none">
	
		<image display="inline" overflow="visible" enable-background="new    " width="1600" height="911" xlink:href="AB0E7E81A2BD4755.png"  transform="matrix(5.4031 0 0 5.4031 0 31.2368)">
	</image>
</g>
<g id="Layer_1_copy">
	<g>
		<path fill="#FFFFFF" d="M1007.7,281.4c-39.4,0.5-75.6,11.3-109.7,31.3c-30.3-74.6-60-148.6-90.2-223.7c6.5,0,12.4,0,18.4,0
			c28.6,0,57.8,0,86.4,0c22.2,0,40.5,15.1,45.4,36.7c6.5,29.2-15.7,56.7-45.9,56.2c-2.2,0-4.9,0-7,1.1c-5.4,2.2-7.6,7-6.5,12.4
			s5.9,9.2,11.3,9.7c22.2,0.5,41.1-6.5,55.7-23.8c17.3-20,21.6-43.2,13-68.1S952,73.4,926.6,68c-4.9-1.1-9.7-1.6-14.6-1.6
			c-44.3,0-89.2,0-133.5,0c-1.1,0-2.7,0-4.3,0c17.8,44.3,35.7,88.1,54,132.4c-2.2,0-3.2,0-4.3,0c-123.2,0-245.8,0-369,0
			c-3.2,0-4.3-1.1-5.9-3.8c-6.5-14.6-13.5-29.7-20-44.8c1.1-0.5,2.2-1.1,3.2-1.6c25.4-13,51.3-25.4,76.7-38.4
			c7-3.2,9.7-9.7,8.6-16.2c-1.6-7-7-11.9-15.1-11.3c-28.6,0-57.3,0-85.9,0.5c-21.6,0.5-43.2,1.1-65.4,1.6c-8.6,0.5-15.7,5.9-17.8,14
			c-2.7,8.1,0,16.7,6.5,22.2c2.2,1.6,4.3,2.7,6.5,3.8c18.4,8.1,36.7,16.7,54.6,24.9c2.2,1.1,3.8,2.7,4.9,4.9
			c6.5,14.6,13,29.2,19.5,44.3c0.5,1.1,0.5,3.2,0,4.9c-18.9,33.5-38.4,66.5-57.8,100c0,0-0.5,0.5,0,0
			c-91.9-38.4-176.7-28.6-250.2,41.1C69.7,390,49.2,447.3,52.4,513.2c2.2,0,3.2,0,4.9,0c1.1,0,2.7,0,4.3-0.5
			c5.9,64.3,33.5,116.2,84.8,155.1c36.7,27.6,78.9,41.1,125.4,40.5c51.9-0.5,97.3-17.8,136.2-52.4c38.9-34,61.1-77.3,68.6-129.1
			c4.3,0.5,8.6,0.5,12.4,1.1c8.1,0.5,15.7,1.1,23.8,1.6c1.6,0,2.7,0.5,3.2,2.7c3.8,21.1,14.6,36.7,33.5,47.5c0.5,0,1.1,0.5,1.6,1.1
			c-2.2,7.6-4.9,15.7-7,23.2c-2.7,8.1-5.4,16.2-7.6,24.9c-0.5,2.7-1.6,3.2-4.3,3.2c-5.4,0-11.3,0-17.3,0c0,7.6,0,15.1,0,23.2
			c19.5,0,38.9,0,58.9,0c0-7.6,0-15.1,0-22.7c-4.3,0-9.2,0-14,0c4.3-15.1,9.2-29.7,13-43.8c6.5-0.5,13-0.5,18.9-1.6
			c41.1-7,64.8-51.3,48.1-89.7c-1.1-2.2-1.1-3.2,1.1-4.9c75.1-65.4,150.2-130.8,225.3-196.1c0.5,0,0.5-0.5,1.1-0.5
			c0.5,0.5,1.1,1.1,1.1,1.6c3.8,8.6,7,17.8,10.8,26.5c1.1,2.2,0.5,3.2-1.1,4.9c-43.2,34.6-69.7,78.9-79.4,133.5
			c-10.3,60,2.7,114.5,37.3,164.3c0.5,0.5,0.5,0.5,1.1,1.1c2.2-1.6,4.9-3.2,7-4.9c38.9,50.8,90.2,80,154,84.8
			c43.2,3.2,84.3-6.5,121.6-28.6c74-44.3,113.5-129.1,98.9-214.5c-8.6-50.2-33-92.4-72.4-124.8c-39.4-33-84.8-48.6-136.2-48.6
			C1008.2,287.9,1008.2,284.6,1007.7,281.4z"/>
		<path fill="#FFFFFF" d="M437.1,227.4c-17.3,29.7-34,58.9-50.8,88.1c65.9,45.9,99.4,109.1,100.5,189.6c9.2,0.5,18.4,1.1,28.1,1.1
			c0.5,0,1.6-1.1,2.2-1.6c4.3-15.7,13.5-27.6,27.6-36.7C508.4,387.8,473.3,307.9,437.1,227.4z"/>
		<g>
			<path fill="#FFFFFF" d="M277.8,325c3.1,0.2,6.2,0.4,9.3,0.8C284,325.5,280.9,325.2,277.8,325z"/>
			<path fill="#FFFFFF" d="M269.9,524.5c1.3-0.1,2.5-0.3,3.8-0.6C272.5,524.2,271.2,524.4,269.9,524.5z"/>
			<path fill="#FFFFFF" d="M249.2,325.8c2.1-0.2,4.3-0.4,6.4-0.6C253.5,325.4,251.4,325.5,249.2,325.8z"/>
			<path fill="#FFFFFF" d="M233.1,328.3c2.2-0.4,4.3-0.8,6.5-1.2C237.4,327.4,235.2,327.8,233.1,328.3z"/>
			<path fill="#FFFFFF" d="M207.4,335.6c7.4-2.8,15-5,22.5-6.7C222.3,330.7,214.8,332.9,207.4,335.6z"/>
			<path fill="#FFFFFF" d="M256.6,521.8c1.2,0.6,2.5,1.1,3.7,1.5C259.1,523,257.9,522.4,256.6,521.8c-8.5-4.3-13.3-12.6-13.3-22.3
				C243.4,509.2,248.1,517.6,256.6,521.8z"/>
			<path fill="#FFFFFF" d="M273.7,523.9c1.9-0.5,3.7-1.1,5.5-2.1C277.4,522.8,275.6,523.4,273.7,523.9z"/>
			<path fill="#FFFFFF" d="M291.8,514.8c45.4,3.2,90.2,5.9,135.6,9.2c4.1,0.5,7.8,0.5,11.5,0.9c-3.4-0.5-7.2-0.9-11.5-0.9
				C382,520.8,337.2,518.1,291.8,514.8c-2.2,0-4.3,0-5.9,2.2c-2,2-4.3,3.6-6.6,4.9c2.4-1.2,4.6-2.8,6.6-4.9
				C287.4,514.8,289.6,514.8,291.8,514.8z"/>
			<path fill="#FFFFFF" d="M386.3,315.4c65.9,45.9,99.4,109.1,100.5,189.6c9.2,0.5,18.4,1.1,28.1,1.1c0.5,0,1.6-1.1,2.2-1.6
				c4.3-15.7,13.5-27.6,27.6-36.7c-36.2-80-71.3-159.9-107.5-240.4C420.4,257.1,403.1,286.3,386.3,315.4z"/>
			<path fill="#FFFFFF" d="M149.7,371.1c13.1-12.1,27.2-21.5,41.9-28.7C176.9,349.6,162.8,359,149.7,371.1
				c-37.5,34.4-57,82-56.7,130.1C92.6,453.1,112.2,405.5,149.7,371.1z"/>
			<path fill="#FFFFFF" d="M260.4,523.4c1.9,0.6,3.8,1,5.7,1.1C264.2,524.3,262.2,524,260.4,523.4z"/>
			<path fill="#FFFFFF" d="M258.8,325c2.1-0.1,4.3-0.2,6.4-0.2C263.1,324.8,261,324.9,258.8,325z"/>
			<path fill="#FFFFFF" d="M935.3,405.1c-4.6-11-9-22.3-13.5-33.5C926,382.9,930.6,394,935.3,405.1z"/>
			<path fill="#FFFFFF" d="M1154.1,397.6c-36-49.5-89.8-73.2-142.8-72.8C1064.1,324.7,1117.7,348.4,1154.1,397.6z"/>
			<path fill="#FFFFFF" d="M191.5,342.4c5.2-2.6,10.5-4.8,15.8-6.8C202,337.6,196.7,339.9,191.5,342.4z"/>
			<path fill="#FFFFFF" d="M599.6,416.5c0.1-0.2,0.1-0.4,0.2-0.5c-5.9,0-11.9,0-17.8,0c0,0.2,0,0.4,0,0.5
				C587.8,416.5,593.7,416.5,599.6,416.5z"/>
			<path fill="#FFFFFF" d="M623.5,419.7c0.5-2.7,2.2-3.2,4.3-3.2c4.3,0,8.6,0,13,0c0-0.2,0-0.4,0-0.5c-4.3,0-8.6,0-13,0
				c-2.2,0-3.8,0.5-4.3,3.2c-4.3,14.6-8.6,29.2-13.5,43.8c-0.2,0.8-0.3,1.5-0.3,2.1c0-0.5,0.1-1,0.3-1.6
				C614.9,448.9,619.2,434.3,623.5,419.7z"/>
			<path fill="#FFFFFF" d="M1216.8,464c-8.6-50.2-33-91.9-72.4-124.8c-38.9-33-84.8-48.6-137.2-48.6c0-3.2-0.5-5.9-0.5-9.2
				c-39.4,0.5-75.6,10.8-109.7,31.3c-29.7-74.6-60-148.6-90.2-223.7c6.5,0,12.4,0,18.4,0c28.6,0,57.8,0,86.4,0
				c22.2,0,40.5,15.1,45.4,36.7c6.5,29.7-15.7,56.7-45.9,56.2c-2.2,0-4.9,0-7,1.1c-4.9,2.2-7.6,7-6.5,12.4c1.1,5.4,5.9,9.7,11.3,9.7
				c22.2,0.5,41.1-7,55.7-23.8c17.3-20,21.6-43.2,13-68.1c-8.1-24.9-26.5-40-51.9-45.4c-4.3-1.1-9.7-1.6-14.6-1.6
				c-44.3,0-89.2,0-133.5,0c-1.1,0-2.2,0-4.3,0c18.4,44.3,36.2,88.1,54,132.4c-1.6,0-3.2,0-4.3,0c-123.2,0-245.8,0-369,0
				c-3.2,0-4.9-1.1-5.9-3.8c-6.5-15.1-13-29.7-20-44.8c1.1-0.5,2.2-1.1,3.2-1.6c25.4-13,51.3-25.4,76.7-38.4
				c7-3.2,10.3-9.7,8.6-16.2c-1.6-7-7-11.3-15.1-11.3c-28.6,0-57.3,0-85.9,0.5c-22.2,0.5-43.8,1.1-65.4,1.6
				c-8.1,0.5-15.1,5.9-17.8,14c-2.7,8.1,0,17.3,6.5,22.2c2.2,1.6,4.3,2.7,6.5,3.8c17.8,8.1,36.2,16.2,54.6,24.9
				c2.2,1.1,3.8,2.7,4.9,4.9c6.5,14.6,13,29.7,19.5,44.3c0.5,1.6,0.5,3.8,0,4.9c-19.5,33.5-38.4,66.5-57.8,100
				c-91.9-38.4-176.7-28.1-250.2,41.1c-48.1,44.8-68.1,102.7-65.4,168c2.2,0,3.2,0,4.9,0c1.6-0.5,2.7-0.5,4.3-0.5
				c5.4,64.3,33,116.7,84.8,155.1c37.3,27.6,79.4,41.1,125.4,40.5c51.9-0.5,97.3-18.4,136.2-52.4c38.4-34.6,61.1-77.8,68.6-129.1
				c3.8,0.5,8.1,0.5,12.4,1.1c8.1,0.5,15.7,1.1,23.8,1.6c2.2,0,2.7,0.5,3.2,2.7c3.8,21.1,15.1,36.7,33.5,47.5
				c0.5,0.5,1.1,0.5,1.6,1.1c-2.2,7.6-4.9,15.7-7,23.2c-2.7,8.6-5.4,16.7-7.6,24.9c-0.5,2.7-1.6,3.2-4.3,3.2c-5.9,0-11.3,0-17.3,0
				c0,8.1,0,15.7,0,23.2c19.5,0,38.9,0,58.9,0c0-7,0-14.6,0-22.7c-4.9,0-9.2,0-14,0c4.3-15.1,8.6-29.7,13-43.8
				c6.5-0.5,13-0.5,18.9-1.6c41.1-7.6,64.8-51.9,48.1-89.7c-0.5-2.2-0.5-3.2,1.1-4.9c75.1-65.4,150.2-130.8,225.3-196.1
				c0,0,0.5,0,1.1-0.5c0.5,0.5,1.1,1.1,1.1,1.6c3.8,8.6,7,17.8,10.8,26.5c1.1,2.2,0.5,3.2-1.1,4.9c-43.2,34.6-70.2,78.9-79.4,133.5
				c-10.3,59.4,2.7,114.5,37.3,164.3c0,0,0.5,0.5,1.1,1.1c2.2-1.6,4.3-3.2,7-4.9c38.9,50.8,90.2,80,154,84.8
				c43.2,3.8,84.3-6.5,121.6-28.6C1192.5,634.2,1231.4,549.9,1216.8,464z M315.5,667.7c-6.1,1.8-12.2,3.2-18.3,4.3
				c-3.7,0.7-7.3,1.2-11,1.6c-2.4,0.3-4.9,0.5-7.3,0.7c-6.1,0.4-12.2,0.5-18.2,0.3c-10.9-0.4-21.7-1.9-32.2-4.3
				c-2.3-0.5-4.7-1.1-7-1.8c-3.5-1-6.9-2-10.3-3.2c-1.1-0.4-2.3-0.8-3.4-1.2c-5.6-2.1-11.1-4.4-16.5-7c-2.1-1-4.3-2.1-6.4-3.3
				c-3.2-1.7-6.3-3.5-9.3-5.4c-1-0.6-2-1.3-3-1.9c-3-2-6-4-8.9-6.2c-8.7-6.4-16.8-13.7-24.2-21.8c-9.1-9.9-17.1-20.9-23.9-32.9
				c-15-26.5-22.4-55.6-22.6-84.4c-0.4-48.1,19.2-95.6,56.7-130.1c13.1-12.1,27.2-21.5,41.9-28.7c5.2-2.6,10.5-4.8,15.8-6.8
				c7.4-2.8,15-5,22.5-6.7c1.1-0.2,2.2-0.5,3.2-0.7c2.2-0.4,4.3-0.8,6.5-1.2c3.2-0.5,6.5-1,9.7-1.3c2.1-0.2,4.3-0.4,6.4-0.6
				c1.1-0.1,2.1-0.1,3.2-0.2c2.1-0.1,4.3-0.2,6.4-0.2c4.2-0.1,8.4,0,12.6,0.2c3.1,0.2,6.2,0.4,9.3,0.8c20.5,2.2,39.6,8.1,56,16.7
				c-0.1,0.3-0.2,0.5-0.3,0.7c-0.3,0.6-0.4,1-0.8,1.4c-24.3,42.7-48.6,84.8-73.5,127.5c-0.3,0.3-0.6,0.5-0.9,0.8
				c-1,0.8-2.2,1.5-3.4,1.9c-10.8,2.2-18.9,10.3-20.5,20.5c-0.2,1.4-0.3,2.8-0.3,4.2c0,9.6,4.8,18,13.3,22.3
				c1.2,0.6,2.5,1.1,3.7,1.5c1.9,0.6,3.8,1,5.7,1.1c1.3,0.1,2.6,0.1,3.8,0c1.3-0.1,2.5-0.3,3.8-0.6c1.9-0.5,3.7-1.1,5.5-2.1
				c2.4-1.2,4.6-2.8,6.6-4.9c1.6-2.2,3.8-2.2,5.9-2.2c45.4,3.2,90.2,5.9,135.6,9.2c4.3,0,8.1,0.4,11.5,0.9c0.7,0.1,1.3,0.1,2,0.2
				C435,579.1,392.8,645.6,315.5,667.7z M443.1,501.8c-1.6,0-2.2,0-3.2,0c-48.1-3.2-95.6-6.5-143.7-9.7c-5.4-0.5-8.1-5.9-5.4-10.8
				c17.8-30.8,35.7-62.1,53.5-92.9c6.5-11.3,13-22.7,20-34.6c28.6,16.7,56.2,51.9,68.6,87C439.8,460.2,443.6,480.8,443.1,501.8z
				 M517.1,504.6c-0.5,0.5-1.6,1.6-2.2,1.6c-9.7,0-18.9-0.5-28.1-1.1c-1.1-80.5-34.6-143.7-100.5-189.6c16.7-29.2,34-58.4,50.8-88.1
				c36.2,80.5,71.3,160.5,107.5,240.4C530.6,477,521.4,488.9,517.1,504.6z M853.7,275.5C778,341.4,701.9,407.8,626.2,474.3
				c-1.1,0.5-1.6,1.1-2.2,1.6c-4.3-2.7-8.1-5.4-12.4-8.1c-1.6-0.8-2-1.6-1.9-2.8c-0.1-0.6,0.1-1.3,0.3-2.1
				c4.9-14.6,9.2-29.2,13.5-43.8c0.5-2.7,2.2-3.2,4.3-3.2c4.3,0,8.6,0,13,0c0-7.4,0-14.8,0-22.2c-20,0-39.4,0-58.9,0
				c0,7.4,0,14.8,0,22.2c5.9,0,11.9,0,17.8,0c-0.1,0.2-0.1,0.4-0.2,0.5c0.1,0,0.1,0,0.2,0c-3.8,13.5-8.1,27-12.4,40.5
				c0,1.1-1.6,1.6-2.2,1.6c-6.5,0-13,0-20,0c-34.6-78.3-69.7-156.7-104.8-236.1c2.2,0,3.2,0,4.9,0c44.8,0,89.7,0,134.5,0
				c77.8,0,155.1,0,232.3,0c3.2,0,4.9,0.5,5.9,3.8c5.9,14,11.3,28.6,17.3,42.7C856.4,271.7,855.9,273.3,853.7,275.5z M1111.4,643.4
				c-80.5,55.1-190.7,34-244.8-47.5c-53-80-27.6-178.3,29.7-226.4c0,1.1,0.5,1.6,1.1,2.7c6.5,15.1,12.4,30.8,18.9,45.9
				c5.9,15.1,12.4,30.8,18.9,45.9c13.5,30.3,43.8,49.2,76.7,47.5c6.5-0.5,11.3-4.9,11.3-11.3c0-5.9-4.9-10.8-11.3-11.3
				c-2.2,0-3.8,0-5.9,0c-24.3-1.6-41.6-14-51.3-36.2c-7-15.7-13-31.9-19.5-47.5c-4.7-11.1-9.3-22.2-13.5-33.5
				c-2.3-5.8-4.6-11.6-7-17.3c28.5-19.6,62.3-29.6,96.5-29.6c53-0.4,106.9,23.3,142.8,72.8C1210.8,476.5,1191.9,587.8,1111.4,643.4z
				"/>
			<path fill="#FFFFFF" d="M1011.3,324.7c-34.2,0-68.1,10-96.5,29.6c2.4,5.7,4.7,11.5,7,17.3c-2.1-5.7-4.1-11.5-6-17.3
				C944,335,977.5,325,1011.3,324.7z"/>
			<path fill="#FFFFFF" d="M185,653.8c-3.2-1.7-6.3-3.5-9.3-5.4C178.8,650.3,181.9,652.1,185,653.8z"/>
			<path fill="#FFFFFF" d="M342.8,343.2c-0.3,0.6-0.4,1-0.8,1.4C342.4,344.2,342.5,343.8,342.8,343.2z"/>
			<path fill="#FFFFFF" d="M207.9,664.1c-5.6-2.1-11.1-4.4-16.5-7C196.8,659.7,202.3,662.1,207.9,664.1z"/>
			<path fill="#FFFFFF" d="M172.7,646.5c-3-2-6-4-8.9-6.2C166.7,642.5,169.7,644.5,172.7,646.5z"/>
			<path fill="#FFFFFF" d="M221.5,668.5c-3.5-1-6.9-2-10.3-3.2C214.6,666.5,218.1,667.5,221.5,668.5z"/>
			<path fill="#FFFFFF" d="M260.7,674.5c-10.9-0.4-21.7-1.9-32.2-4.3C239,672.7,249.8,674.1,260.7,674.5z"/>
			<path fill="#FFFFFF" d="M228.5,670.2c-2.3-0.5-4.7-1.1-7-1.8C223.8,669.1,226.2,669.7,228.5,670.2z"/>
			<path fill="#FFFFFF" d="M286.2,673.6c-2.4,0.3-4.9,0.5-7.3,0.7C281.3,674.1,283.8,673.9,286.2,673.6z"/>
			<path fill="#FFFFFF" d="M297.2,672c-3.7,0.7-7.3,1.2-11,1.6C289.9,673.2,293.6,672.7,297.2,672z"/>
			<path fill="#FFFFFF" d="M139.6,618.5c7.4,8.1,15.6,15.3,24.2,21.8C155.1,633.9,147,626.6,139.6,618.5z"/>
			<path fill="#FFFFFF" d="M93,501.2c0.2,28.9,7.6,57.9,22.6,84.4c6.8,12.1,14.8,23.1,23.9,32.9c-9.1-9.9-17.1-20.9-23.9-32.9
				C100.6,559.1,93.2,530,93,501.2z"/>
			<path fill="#FFFFFF" d="M260.7,674.5c6.1,0.2,12.1,0.1,18.2-0.3C272.8,674.7,266.7,674.8,260.7,674.5z"/>
			<path fill="#FFFFFF" d="M581.9,393.2c0,0.2,0,0.4,0,0.5c19.5,0,38.9,0,58.9,0c0-0.2,0-0.4,0-0.5
				C620.8,393.2,601.4,393.2,581.9,393.2z"/>
			<path fill="#FFFFFF" d="M585.2,458.1c-6.5,0-13,0-20,0c-34.6-77.8-69.7-156.7-104.8-235.6c35.1,79.4,70.2,157.8,104.8,236.1
				c7,0,13.5,0,20,0c0.5,0,2.2-0.5,2.2-1.6c4.3-13.5,8.6-27,12.4-40.5c-0.1,0-0.1,0-0.2,0c-3.7,13.3-8,26.7-12.3,40
				C587.3,457.5,585.7,458.1,585.2,458.1z"/>
		</g>
	</g>
</g>
</svg>
