<?xml version="1.0" encoding="utf-8"?>
<!-- Generator: Adobe Illustrator 18.1.1, SVG Export Plug-In . SVG Version: 6.00 Build 0)  -->
<svg version="1.1" xmlns="http://www.w3.org/2000/svg" xmlns:xlink="http://www.w3.org/1999/xlink" x="0px" y="0px"
	 viewBox="0 0 290 290" enable-background="new 0 0 290 290" xml:space="preserve">
<g id="Layer_2">
</g>
<g id="Layer_1">
	<g>
		<path fill="#FFFFFF" d="M264.6,153.8c-0.1-0.6-0.2-1.3-0.4-1.9c-0.2-1-0.4-1.9-0.7-2.8c-0.7-2.5-1.6-4.8-2.7-7
			c-0.4-0.8-0.8-1.7-1.3-2.5c-0.5-0.8-1-1.6-1.5-2.4c-0.3-0.5-0.7-1-1.1-1.5c-0.4-0.5-0.8-1-1.2-1.5c-0.6-0.7-1.2-1.4-1.9-2.1
			c-1.3-1.4-2.7-2.7-4.2-4c-0.5-0.4-1-0.8-1.5-1.2c-0.5-0.4-1-0.8-1.6-1.1c-1.3-0.9-2.7-1.8-4-2.5c-0.6-0.3-1.1-0.6-1.7-0.9
			c-0.3-0.1-0.6-0.3-0.8-0.4c-0.6-0.3-1.1-0.5-1.7-0.7c-2.3-0.9-4.7-1.6-7.1-2.2c-0.6-0.1-1.2-0.2-1.9-0.3c-0.3-0.1-0.6-0.1-0.9-0.1
			c-2.2-0.3-4.5-0.5-6.8-0.5c0-0.2,0-0.3,0-0.5c0-0.3,0-0.6,0-0.9c0-0.2,0-0.3,0-0.5c-0.8,0-1.5,0-2.3,0.1c-0.5,0-1,0.1-1.5,0.1
			c-1,0.1-2,0.2-2.9,0.4c-0.7,0.1-1.5,0.3-2.2,0.4c-0.2,0.1-0.5,0.1-0.7,0.2c-0.7,0.2-1.4,0.4-2.1,0.6c-0.2,0.1-0.5,0.1-0.7,0.2
			c-0.5,0.1-0.9,0.3-1.4,0.5c-1.2,0.4-2.3,0.8-3.4,1.3c-0.5,0.2-0.9,0.4-1.4,0.6c-1.4,0.6-2.7,1.4-4,2.1
			c-6.2-15.3-12.4-30.6-18.6-46.1c1.3,0,2.6,0,3.8,0c5.9,0,11.9,0,17.8,0c1.1,0,2.2,0.2,3.3,0.6c0.3,0.1,0.5,0.2,0.7,0.3
			c0.6,0.3,1.2,0.6,1.7,1c0.2,0.2,0.4,0.3,0.6,0.5c0.3,0.3,0.6,0.5,0.8,0.8c0.4,0.4,0.7,0.8,1,1.3c0.2,0.3,0.4,0.7,0.6,1.1
			c0.1,0.2,0.2,0.5,0.3,0.8c0.1,0.3,0.2,0.5,0.3,0.8c0,0.1,0.1,0.3,0.1,0.4c1.4,6-3.3,11.7-9.5,11.5c-0.5,0-1,0-1.4,0.2
			c-1.1,0.4-1.6,1.5-1.4,2.6c0.2,1.1,1.2,1.9,2.3,2c4.6,0.1,8.5-1.4,11.5-4.9c0.3-0.4,0.6-0.8,0.9-1.2s0.5-0.8,0.8-1.2
			c0.2-0.4,0.5-0.8,0.6-1.2c0.1-0.3,0.2-0.6,0.4-0.8c0.3-0.8,0.6-1.7,0.7-2.6c0-0.1,0-0.3,0.1-0.4c0.1-0.4,0.1-0.9,0.1-1.3
			c0-0.6,0-1.2-0.1-1.8c0-0.2,0-0.3-0.1-0.5c-0.1-0.6-0.2-1.2-0.4-1.9c-0.1-0.3-0.2-0.6-0.3-1c-0.1-0.3-0.2-0.6-0.4-0.9
			c-0.2-0.5-0.4-0.9-0.6-1.3c-0.1-0.3-0.3-0.6-0.5-0.8c-0.3-0.5-0.7-1-1.1-1.5c-0.5-0.6-1-1.1-1.6-1.6c-0.2-0.2-0.5-0.4-0.7-0.6
			c-0.2-0.2-0.5-0.4-0.7-0.5c-0.1-0.1-0.3-0.2-0.4-0.2c-0.4-0.2-0.8-0.5-1.2-0.7c-0.4-0.2-0.9-0.4-1.3-0.6c-0.4-0.2-0.9-0.3-1.4-0.4
			c-0.3-0.1-0.6-0.2-1-0.2c-1-0.2-2-0.3-3.1-0.3c-9.2,0-18.4,0-27.5,0c-0.3,0-0.5,0-0.9,0c3.7,9.1,7.4,18.1,11.1,27.3
			c-0.4,0-0.7,0-0.9,0c-25.3,0-50.7,0-76,0c-0.6,0-0.9-0.2-1.2-0.8c-1.3-3.1-2.7-6.1-4.1-9.2c0.2-0.1,0.5-0.2,0.7-0.3
			c5.3-2.6,10.5-5.2,15.8-7.9c1.4-0.7,2-2,1.7-3.4c-0.3-1.5-1.5-2.4-3.2-2.4c-5.9,0-11.8,0-17.7,0.1c-4.5,0.1-8.9,0.2-13.4,0.3
			c-1.8,0.1-3.2,1.2-3.7,2.9c-0.5,1.6,0,3.5,1.3,4.5c0.4,0.3,0.9,0.6,1.3,0.8c3.8,1.7,7.5,3.4,11.3,5.2c0.4,0.2,0.8,0.6,1,1
			c1.4,3,2.7,6,4,9.1c0.1,0.3,0.1,0.7,0,1c-3.9,6.9-7.9,13.7-11.9,20.6c0,0-0.1,0.1,0,0c-19-7.9-36.4-5.9-51.5,8.4
			c-9.8,9.3-14,21.2-13.4,34.7c0.4,0,0.7,0,1,0c0.3,0,0.6,0,0.9-0.1c1.2,13.2,6.9,24,17.5,31.9c7.6,5.7,16.3,8.4,25.8,8.3
			c10.7-0.1,20-3.7,28-10.8c8-7,12.6-16,14.2-26.6c0.9,0.1,1.8,0.1,2.6,0.2c1.6,0.1,3.2,0.2,4.8,0.3c0.4,0,0.6,0.1,0.7,0.5
			c0.7,4.4,3,7.6,6.9,9.8c0.1,0.1,0.2,0.1,0.3,0.2c-0.5,1.6-1,3.2-1.5,4.8c-0.5,1.7-1.1,3.4-1.6,5.1c-0.1,0.5-0.4,0.7-0.9,0.7
			c-1.2,0-2.3,0-3.5,0c0,1.6,0,3.1,0,4.7c4,0,8,0,12.1,0c0-1.5,0-3.1,0-4.7c-0.9,0-1.8,0-2.9,0c0.9-3.1,1.8-6.1,2.7-9
			c1.4-0.1,2.7-0.1,3.9-0.3c8.4-1.5,13.3-10.6,9.9-18.4c-0.2-0.4-0.2-0.7,0.2-1c15.5-13.4,30.9-26.9,46.4-40.4
			c0.1,0,0.1-0.1,0.2-0.2c0.1,0.1,0.2,0.2,0.2,0.4c0.7,1.8,1.4,3.6,2.2,5.4c0.2,0.4,0.1,0.7-0.3,1c-8.9,7.1-14.4,16.3-16.3,27.5
			c-2.1,12.3,0.6,23.6,7.7,33.9c0.1,0.1,0.1,0.2,0.2,0.3c0.5-0.3,1-0.7,1.5-1.1c8,10.5,18.5,16.5,31.7,17.5c0.8,0.1,1.7,0.1,2.5,0.1
			c0.3,0,0.6,0,0.8,0s0.5,0,0.8,0c3-0.1,6-0.4,8.8-1.1c0.8-0.2,1.6-0.4,2.3-0.6c1.5-0.5,3.1-1,4.6-1.7c1.7-0.8,3.5-1.6,5.2-2.7
			c2.1-1.3,4.2-2.7,6-4.3c1.2-1.1,2.4-2.2,3.5-3.4c0.2-0.2,0.4-0.4,0.5-0.6c0.9-1,1.7-2,2.5-3.1c0.3-0.4,0.6-0.9,0.9-1.3
			c0.3-0.4,0.6-0.9,0.9-1.3c0.6-0.9,1.1-1.8,1.6-2.8c0.1-0.2,0.2-0.5,0.4-0.7c0.2-0.5,0.5-1,0.7-1.4c0.2-0.5,0.4-1,0.6-1.5
			c0.2-0.5,0.4-1,0.6-1.5c0.1-0.2,0.2-0.5,0.3-0.7c0.2-0.5,0.3-1,0.5-1.5c0.1-0.3,0.2-0.5,0.2-0.8c0.2-0.8,0.4-1.5,0.6-2.3
			c0.5-2.3,0.9-4.7,1-7.2c0-0.5,0.1-1.1,0.1-1.6c0-0.5,0-1.1,0-1.6C265.2,158.2,265,156,264.6,153.8z M79.1,195.7
			c-16,4.6-33-2.4-41.2-17c-8.2-14.6-5.3-32.8,7-44.2c12.3-11.3,29-11.5,39.8-5.9c-0.1,0.1-0.1,0.3-0.2,0.4
			c-5.1,8.8-10.1,17.5-15.2,26.3c-0.2,0.3-0.6,0.5-0.9,0.6c-2.2,0.4-4,2.1-4.3,4.2c-0.4,2.3,0.7,4.4,2.7,5.4c2,1,4.3,0.7,6-0.9
			c0.4-0.4,0.8-0.4,1.2-0.4c9.3,0.6,18.6,1.2,27.9,1.8c0.9,0.1,1.8,0.1,2.8,0.2C103.5,177.4,94.9,191.2,79.1,195.7z M104.6,161.5
			c-9.9-0.7-19.8-1.3-29.6-2c-1.1-0.1-1.7-1.2-1.1-2.2c3.7-6.4,7.4-12.8,11.1-19.2c1.4-2.4,2.8-4.8,4.1-7.2
			c5.9,3.5,11.6,10.7,14.1,17.9c1.4,4.1,2.2,8.2,2.1,12.6C104.9,161.5,104.7,161.5,104.6,161.5z M120.4,162.1c0,0.1-0.3,0.3-0.4,0.3
			c-1.9-0.1-3.8-0.2-5.8-0.3c-0.2-16.6-7.1-29.6-20.7-39c3.5-6,6.9-12,10.5-18.2c7.4,16.6,14.7,33.1,22,49.6
			C123.2,156.5,121.3,159,120.4,162.1z M189.8,114.8c-15.7,13.6-31.3,27.3-46.9,40.9c-0.1,0.1-0.3,0.2-0.4,0.3
			c-0.9-0.6-1.7-1.2-2.5-1.7c-0.4-0.3-0.5-0.5-0.4-0.9c0.9-3,1.9-6,2.7-9c0.1-0.5,0.4-0.6,0.9-0.6c0.9,0,1.8,0,2.7,0
			c0-1.6,0-3.1,0-4.7c-4.1,0-8.1,0-12.1,0c0,1.6,0,3.1,0,4.7c1.2,0,2.4,0,3.7,0c-0.9,2.9-1.7,5.6-2.6,8.4c0,0.1-0.3,0.3-0.4,0.3
			c-1.3,0-2.7,0-4.1,0c-7.1-16-14.3-32.3-21.6-48.6c0.4,0,0.7,0,1,0c9.3,0,18.5,0,27.8,0c15.9,0,31.9,0,47.8,0c0.7,0,1,0.2,1.2,0.8
			c1.1,2.9,2.3,5.9,3.5,8.8C190.4,114.1,190.3,114.4,189.8,114.8z M242.7,190.7c-5.4,3.8-11.5,5.8-17.7,6.3c-0.3,0-0.6,0-0.9,0.1
			c-0.6,0-1.2,0-1.8,0c-0.6,0-1.2,0-1.8,0c-1.2-0.1-2.3-0.2-3.5-0.3c-0.6-0.1-1.2-0.2-1.7-0.3c-0.3-0.1-0.6-0.1-0.9-0.2
			c-1.4-0.3-2.8-0.7-4.2-1.2c-0.6-0.2-1.1-0.4-1.6-0.6c-2.4-1-4.8-2.2-7-3.8c-3.7-2.5-6.9-5.8-9.5-9.7c-10.9-16.5-5.8-36.8,6.1-46.7
			c0.1,0.2,0.2,0.4,0.3,0.6c1.3,3.2,2.6,6.3,3.9,9.5c1.3,3.2,2.5,6.3,3.9,9.5c0.7,1.6,1.6,3,2.7,4.2c1,1.1,2,2,3.2,2.8
			c0.3,0.2,0.7,0.4,1,0.6c0.4,0.2,0.7,0.4,1.1,0.6c0.2,0.1,0.4,0.2,0.6,0.3c0.4,0.2,0.8,0.3,1.1,0.4c0.4,0.1,0.8,0.3,1.2,0.4
			c0.4,0.1,0.8,0.2,1.2,0.3c0.6,0.1,1.2,0.2,1.8,0.2c0.4,0,0.8,0,1.3,0c0.2,0,0.4,0,0.6,0c1.4-0.1,2.4-1,2.4-2.3c0-0.2,0-0.3,0-0.5
			s-0.1-0.3-0.1-0.4c-0.1-0.1-0.1-0.3-0.2-0.4s-0.2-0.2-0.3-0.3c-0.3-0.3-0.6-0.5-1-0.6c-0.2-0.1-0.5-0.1-0.7-0.1
			c-0.1,0-0.2,0-0.3,0c-0.2,0-0.4,0-0.6,0c-0.1,0-0.2,0-0.3,0c-0.6,0-1.2-0.1-1.8-0.2c-0.9-0.2-1.7-0.4-2.5-0.7
			c-0.3-0.1-0.5-0.2-0.7-0.3c-0.1-0.1-0.2-0.1-0.4-0.2c-0.2-0.1-0.5-0.3-0.7-0.4c-1.1-0.7-2.1-1.7-2.9-2.8c-0.6-0.8-1.1-1.7-1.5-2.7
			c-1.2-2.8-2.3-5.7-3.5-8.6c-0.2-0.4-0.3-0.8-0.5-1.2c-1.4-3.5-2.8-7-4.2-10.5c14.9-10.2,37-7.8,49.1,8.9c1.1,1.5,2.1,3.1,2.9,4.7
			c0.3,0.5,0.5,1.1,0.8,1.6c0.4,0.8,0.7,1.7,1,2.5c0.4,1.1,0.7,2.3,1,3.4c0.2,0.9,0.4,1.7,0.5,2.6
			C260,168.3,254.6,182.4,242.7,190.7z"/>
	</g>
</g>
</svg>
